<svg width="22" height="21" viewBox="0 0 22 21" fill="none" xmlns="http://www.w3.org/2000/svg">
<path d="M11.7554 0.487441L14.39 6.13515C14.5134 6.39898 14.7635 6.58073 15.0521 6.61598L21.2385 7.37661C21.9498 7.46419 22.2351 8.34323 21.7107 8.83178L17.1536 13.0835C16.9407 13.2818 16.8454 13.5757 16.9005 13.8621L18.0891 19.9799C18.2251 20.6835 17.4777 21.2263 16.8512 20.8787L11.3993 17.8585C11.1448 17.7175 10.8353 17.7175 10.5808 17.8585L5.12975 20.8787C4.50241 21.2263 3.755 20.6835 3.89187 19.9799L5.07963 13.8621C5.13554 13.5757 5.03942 13.2818 4.82655 13.0835L0.269383 8.83178C-0.254961 8.34323 0.0306193 7.46419 0.742504 7.37661L6.92833 6.61598C7.21721 6.58073 7.46754 6.39898 7.59009 6.13515L10.2248 0.487441C10.528 -0.16248 11.4522 -0.16248 11.7554 0.487441Z" fill="#F1F1F1"/>
</svg>
