<svg width="20" height="20" viewBox="0 0 20 20" fill="none" xmlns="http://www.w3.org/2000/svg">
<path d="M14.2786 7.61768C14.3449 7.68396 14.3976 7.76266 14.4335 7.8493C14.4694 7.93593 14.4879 8.02879 14.4879 8.12257C14.4879 8.21635 14.4694 8.30921 14.4335 8.39585C14.3976 8.48248 14.3449 8.56118 14.2786 8.62746L9.28323 13.6228C9.21695 13.6892 9.13825 13.7418 9.05161 13.7777C8.96498 13.8136 8.87212 13.8321 8.77834 13.8321C8.68456 13.8321 8.5917 13.8136 8.50506 13.7777C8.41843 13.7418 8.33973 13.6892 8.27345 13.6228L6.13258 11.482C5.99867 11.3481 5.92344 11.1664 5.92344 10.9771C5.92344 10.7877 5.99867 10.6061 6.13258 10.4722C6.26648 10.3383 6.4481 10.263 6.63747 10.263C6.82684 10.263 7.00845 10.3383 7.14236 10.4722L8.77834 12.1091L13.2688 7.61768C13.3351 7.55133 13.4138 7.4987 13.5004 7.46278C13.5871 7.42687 13.6799 7.40839 13.7737 7.40839C13.8675 7.40839 13.9604 7.42687 14.047 7.46278C14.1336 7.4987 14.2123 7.55133 14.2786 7.61768ZM19.4827 10.2634C19.4827 12.0983 18.9386 13.8919 17.9192 15.4175C16.8998 16.9431 15.451 18.1322 13.7558 18.8344C12.0606 19.5365 10.1953 19.7203 8.39571 19.3623C6.59613 19.0043 4.9431 18.1208 3.64568 16.8234C2.34825 15.5259 1.46469 13.8729 1.10673 12.0733C0.748769 10.2737 0.932486 8.40842 1.63465 6.71325C2.33681 5.01807 3.52588 3.56919 5.0515 2.5498C6.57711 1.53042 8.37075 0.986328 10.2056 0.986328C12.6652 0.988926 15.0234 1.96717 16.7626 3.7064C18.5019 5.44564 19.4801 7.8038 19.4827 10.2634ZM18.0555 10.2634C18.0555 8.71089 17.5951 7.1932 16.7325 5.90229C15.87 4.61139 14.644 3.60525 13.2096 3.01111C11.7752 2.41697 10.1969 2.26152 8.67415 2.56441C7.15143 2.8673 5.75272 3.61493 4.65489 4.71275C3.55707 5.81057 2.80944 7.20929 2.50655 8.73201C2.20366 10.2547 2.35912 11.8331 2.95326 13.2675C3.54739 14.7018 4.55353 15.9278 5.84443 16.7904C7.13534 17.6529 8.65303 18.1133 10.2056 18.1133C12.2868 18.111 14.2821 17.2832 15.7537 15.8115C17.2253 14.3399 18.0531 12.3446 18.0555 10.2634Z" fill="#1CC117"/>
</svg>
