<svg width="82" height="59" viewBox="0 0 82 59" fill="none" xmlns="http://www.w3.org/2000/svg">
<path d="M75.375 0.28125H19.125C17.4674 0.28125 15.8777 0.840958 14.7056 1.83724C13.5335 2.83353 12.875 4.18479 12.875 5.59375V10.9062H6.625C4.9674 10.9062 3.37768 11.466 2.20558 12.4622C1.03348 13.4585 0.375 14.8098 0.375 16.2188V53.4062C0.375 54.8152 1.03348 56.1665 2.20558 57.1628C3.37768 58.159 4.9674 58.7188 6.625 58.7188H62.875C64.5326 58.7188 66.1223 58.159 67.2944 57.1628C68.4665 56.1665 69.125 54.8152 69.125 53.4062V48.0938H75.375C77.0326 48.0938 78.6223 47.534 79.7944 46.5378C80.9665 45.5415 81.625 44.1902 81.625 42.7812V5.59375C81.625 4.18479 80.9665 2.83353 79.7944 1.83724C78.6223 0.840958 77.0326 0.28125 75.375 0.28125ZM19.125 5.59375H75.375V26.4287L71.4414 23.0885C70.861 22.595 70.172 22.2036 69.4136 21.9366C68.6552 21.6695 67.8424 21.5321 67.0215 21.5321C66.2006 21.5321 65.3878 21.6695 64.6294 21.9366C63.871 22.2036 63.1819 22.595 62.6016 23.0885L54.7891 29.7291L37.6016 15.1197C36.4296 14.1242 34.8405 13.565 33.1836 13.565C31.5267 13.565 29.9376 14.1242 28.7656 15.1197L19.125 23.3143V5.59375ZM62.875 53.4062H6.625V16.2188H12.875V42.7812C12.875 44.1902 13.5335 45.5415 14.7056 46.5378C15.8777 47.534 17.4674 48.0938 19.125 48.0938H62.875V53.4062ZM75.375 42.7812H19.125V30.8281L33.1875 18.875L52.5859 35.3637C53.1719 35.8614 53.9665 36.1411 54.7949 36.1411C55.6234 36.1411 56.4179 35.8614 57.0039 35.3637L67.0273 26.8438L75.375 33.9426V42.7812ZM53.5 14.8906C53.5 14.1026 53.7749 13.3323 54.29 12.677C54.8051 12.0218 55.5371 11.5111 56.3937 11.2095C57.2502 10.908 58.1927 10.8291 59.102 10.9828C60.0113 11.1365 60.8465 11.516 61.5021 12.0732C62.1576 12.6305 62.6041 13.3404 62.7849 14.1133C62.9658 14.8862 62.873 15.6873 62.5182 16.4154C62.1634 17.1434 61.5626 17.7657 60.7917 18.2035C60.0209 18.6413 59.1146 18.875 58.1875 18.875C56.9443 18.875 55.752 18.4552 54.8729 17.708C53.9939 16.9608 53.5 15.9473 53.5 14.8906Z" fill="#CED7DE"/>
</svg>
