<svg width="60" height="60" viewBox="0 0 60 60" fill="none" xmlns="http://www.w3.org/2000/svg">
<path d="M50.5434 26.1795L33.8314 9.4675C31.7152 7.35135 28.2843 7.35135 26.1681 9.4675L9.45609 26.1795C7.33994 28.2957 7.33994 31.7266 9.45609 33.8428L26.1681 50.5548C28.2843 52.671 31.7152 52.671 33.8314 50.5548L50.5434 33.8428C52.6596 31.7266 52.6596 28.2957 50.5434 26.1795Z" fill="#066EA1"/>
<path d="M47.8969 31.1813L31.1812 47.8969C30.867 48.2083 30.4424 48.3831 30 48.3831C29.5575 48.3831 29.133 48.2083 28.8187 47.8969L12.1031 31.1813C11.7917 30.867 11.6169 30.4424 11.6169 30C11.6169 29.5576 11.7917 29.133 12.1031 28.8188L12.7969 28.125L28.8187 12.1031C29.133 11.7917 29.5575 11.617 30 11.617C30.4424 11.617 30.867 11.7917 31.1812 12.1031L46.2656 27.1875L47.8969 28.8188C48.2083 29.133 48.383 29.5576 48.383 30C48.383 30.4424 48.2083 30.867 47.8969 31.1813Z" fill="#FDBB2C"/>
<path d="M46.2656 27.1875L30.2437 43.2094C29.9295 43.5208 29.5049 43.6956 29.0625 43.6956C28.6201 43.6956 28.1955 43.5208 27.8813 43.2094L12.7969 28.125L28.8188 12.1031C29.133 11.7917 29.5576 11.617 30 11.617C30.4424 11.617 30.867 11.7917 31.1812 12.1031L46.2656 27.1875Z" fill="#FFC764"/>
<path d="M31.875 33.75H28.125L27.1875 20.625H32.8125L31.875 33.75Z" fill="#F72237"/>
<path d="M30 40.3125C31.0355 40.3125 31.875 39.473 31.875 38.4375C31.875 37.402 31.0355 36.5625 30 36.5625C28.9645 36.5625 28.125 37.402 28.125 38.4375C28.125 39.473 28.9645 40.3125 30 40.3125Z" fill="#F72237"/>
<path d="M30 53.0625C29.1632 53.063 28.3347 52.8976 27.5622 52.5757C26.7898 52.2539 26.0889 51.782 25.5 51.1875L8.79378 34.5C7.60529 33.3039 6.93823 31.6862 6.93823 30C6.93823 28.3138 7.60529 26.6961 8.79378 25.5L13.0125 21.2813C13.1891 21.1047 13.4285 21.0055 13.6782 21.0055C13.9278 21.0055 14.1672 21.1047 14.3438 21.2813C14.5203 21.4578 14.6195 21.6972 14.6195 21.9469C14.6195 22.1965 14.5203 22.436 14.3438 22.6125L10.125 26.8313C9.70778 27.2467 9.3767 27.7406 9.15079 28.2843C8.92487 28.8281 8.80858 29.4112 8.80858 30C8.80858 30.5888 8.92487 31.1719 9.15079 31.7157C9.3767 32.2594 9.70778 32.7533 10.125 33.1688L26.8313 49.875C27.2468 50.2923 27.7406 50.6233 28.2844 50.8492C28.8281 51.0752 29.4112 51.1915 30 51.1915C30.5889 51.1915 31.1719 51.0752 31.7157 50.8492C32.2595 50.6233 32.7533 50.2923 33.1688 49.875L49.875 33.1688C50.2923 32.7533 50.6234 32.2594 50.8493 31.7157C51.0752 31.1719 51.1915 30.5888 51.1915 30C51.1915 29.4112 51.0752 28.8281 50.8493 28.2843C50.6234 27.7406 50.2923 27.2467 49.875 26.8313L33.1688 10.125C32.7533 9.70775 32.2595 9.37667 31.7157 9.15076C31.1719 8.92484 30.5889 8.80855 30 8.80855C29.4112 8.80855 28.8281 8.92484 28.2844 9.15076C27.7406 9.37667 27.2468 9.70775 26.8313 10.125L16.9875 19.9688C16.811 20.1453 16.5716 20.2445 16.3219 20.2445C16.0723 20.2445 15.8328 20.1453 15.6563 19.9688C15.4797 19.7922 15.3806 19.5528 15.3806 19.3031C15.3806 19.0535 15.4797 18.814 15.6563 18.6375L25.5 8.79375C26.6961 7.60526 28.3139 6.9382 30 6.9382C31.6862 6.9382 33.3039 7.60526 34.5 8.79375L51.2063 25.5C52.3948 26.6961 53.0618 28.3138 53.0618 30C53.0618 31.6862 52.3948 33.3039 51.2063 34.5L34.5 51.2062C33.9096 51.7974 33.208 52.2658 32.4357 52.5844C31.6633 52.903 30.8355 53.0655 30 53.0625Z" fill="#05577F"/>
<path d="M30 49.3219C29.6526 49.3272 29.3076 49.2627 28.9855 49.1323C28.6634 49.0018 28.3708 48.8081 28.125 48.5625L26.7 47.1469C26.5235 46.9703 26.4243 46.7309 26.4243 46.4813C26.4243 46.2316 26.5235 45.9922 26.7 45.8156C26.8765 45.6391 27.116 45.5399 27.3656 45.5399C27.6153 45.5399 27.8547 45.6391 28.0312 45.8156L29.4469 47.2313C29.5142 47.2997 29.5944 47.354 29.683 47.391C29.7715 47.428 29.8665 47.447 29.9625 47.4469C30.1588 47.4456 30.3469 47.3683 30.4875 47.2313L47.2312 30.5156C47.3001 30.4476 47.3548 30.3666 47.3921 30.2773C47.4295 30.188 47.4487 30.0921 47.4487 29.9953C47.4487 29.8985 47.4295 29.8027 47.3921 29.7134C47.3548 29.624 47.3001 29.543 47.2312 29.475L30.5156 12.7688C30.4483 12.7003 30.3681 12.646 30.2795 12.609C30.191 12.572 30.096 12.553 30 12.5531C29.9019 12.5535 29.8048 12.5736 29.7146 12.6122C29.6244 12.6509 29.5429 12.7073 29.475 12.7781L12.7687 29.4844C12.6999 29.5524 12.6452 29.6334 12.6079 29.7227C12.5705 29.8121 12.5513 29.9079 12.5513 30.0047C12.5513 30.1015 12.5705 30.1973 12.6079 30.2867C12.6452 30.376 12.6999 30.457 12.7687 30.525L25.4344 43.1813C25.6109 43.3578 25.7101 43.5972 25.7101 43.8469C25.7101 44.0965 25.6109 44.336 25.4344 44.5125C25.2578 44.689 25.0184 44.7882 24.7687 44.7882C24.5191 44.7882 24.2797 44.689 24.1031 44.5125L11.4375 31.875C10.9559 31.3827 10.6863 30.7215 10.6863 30.0328C10.6863 29.3442 10.9559 28.6829 11.4375 28.1906L28.125 11.4375C28.3721 11.1936 28.6649 11.001 28.9867 10.8707C29.3085 10.7403 29.6528 10.6749 30 10.6781C30.3474 10.6728 30.6924 10.7373 31.0145 10.8677C31.3365 10.9982 31.6292 11.1919 31.875 11.4375L48.5625 28.125C49.0441 28.6173 49.3137 29.2785 49.3137 29.9672C49.3137 30.6558 49.0441 31.3171 48.5625 31.8094L31.875 48.5625C31.6279 48.8064 31.3351 48.999 31.0133 49.1293C30.6915 49.2597 30.3471 49.3251 30 49.3219Z" fill="#05577F"/>
<path d="M31.875 34.6875H28.125C27.8873 34.6881 27.6583 34.5984 27.4842 34.4365C27.3102 34.2746 27.2041 34.0527 27.1875 33.8156L26.25 20.6906C26.2417 20.5623 26.2599 20.4337 26.3035 20.3128C26.347 20.1918 26.415 20.0811 26.5031 19.9875C26.5905 19.8932 26.6964 19.818 26.8141 19.7664C26.9319 19.7148 27.0589 19.6879 27.1875 19.6875H32.8125C32.941 19.6879 33.0681 19.7148 33.1859 19.7664C33.3036 19.818 33.4095 19.8932 33.4969 19.9875C33.585 20.0811 33.653 20.1918 33.6965 20.3128C33.7401 20.4337 33.7583 20.5623 33.75 20.6906L33.3469 26.3906C33.3385 26.5138 33.306 26.6342 33.251 26.7448C33.196 26.8554 33.1197 26.954 33.0265 27.035C32.9333 27.1161 32.825 27.1779 32.7078 27.2169C32.5906 27.2559 32.4669 27.2714 32.3437 27.2625C32.2197 27.2542 32.0985 27.2213 31.9872 27.1658C31.876 27.1102 31.7769 27.0331 31.6958 26.9388C31.6146 26.8446 31.5531 26.7352 31.5146 26.6169C31.4762 26.4987 31.4616 26.3739 31.4719 26.25L31.8094 21.5625H28.1906L28.9969 32.8125H31.0031L31.2094 29.9156C31.2309 29.6701 31.3482 29.443 31.5359 29.2833C31.7237 29.1236 31.9667 29.0443 32.2125 29.0625C32.3357 29.0708 32.4561 29.1034 32.5667 29.1584C32.6772 29.2134 32.7759 29.2897 32.8569 29.3829C32.9379 29.4761 32.9997 29.5844 33.0388 29.7016C33.0778 29.8187 33.0933 29.9424 33.0844 30.0656L32.8125 33.8156C32.7959 34.0527 32.6898 34.2746 32.5157 34.4365C32.3417 34.5984 32.1127 34.6881 31.875 34.6875ZM30 41.25C29.4437 41.25 28.9 41.085 28.4374 40.776C27.9749 40.467 27.6144 40.0277 27.4016 39.5138C27.1887 38.9999 27.133 38.4344 27.2415 37.8888C27.3501 37.3432 27.6179 36.8421 28.0113 36.4488C28.4046 36.0554 28.9057 35.7876 29.4513 35.679C29.9969 35.5705 30.5624 35.6262 31.0763 35.8391C31.5902 36.052 32.0295 36.4124 32.3385 36.875C32.6475 37.3375 32.8125 37.8812 32.8125 38.4375C32.8125 39.1834 32.5162 39.8988 31.9887 40.4262C31.4613 40.9537 30.7459 41.25 30 41.25ZM30 37.5C29.8146 37.5 29.6333 37.555 29.4791 37.658C29.325 37.761 29.2048 37.9074 29.1339 38.0787C29.0629 38.25 29.0443 38.4385 29.0805 38.6204C29.1167 38.8023 29.206 38.9693 29.3371 39.1004C29.4682 39.2315 29.6352 39.3208 29.8171 39.357C29.9989 39.3932 30.1874 39.3746 30.3588 39.3036C30.5301 39.2327 30.6765 39.1125 30.7795 38.9583C30.8825 38.8042 30.9375 38.6229 30.9375 38.4375C30.9375 38.1889 30.8387 37.9504 30.6629 37.7746C30.4871 37.5988 30.2486 37.5 30 37.5Z" fill="#05577F"/>
</svg>
