<svg width="15" height="13" viewBox="0 0 15 13" fill="none" xmlns="http://www.w3.org/2000/svg">
<path d="M13.5 3.40812V1.5C13.5 1.23478 13.3946 0.98043 13.2071 0.792893C13.0196 0.605357 12.7652 0.5 12.5 0.5H1.5C1.23478 0.5 0.98043 0.605357 0.792893 0.792893C0.605357 0.98043 0.5 1.23478 0.5 1.5V9.5C0.5 9.76522 0.605357 10.0196 0.792893 10.2071C0.98043 10.3946 1.23478 10.5 1.5 10.5H9V12C8.99921 12.0881 9.02173 12.1749 9.06529 12.2516C9.10885 12.3282 9.1719 12.392 9.24804 12.4364C9.32419 12.4808 9.41072 12.5043 9.49887 12.5045C9.58702 12.5047 9.67366 12.4816 9.75 12.4375L11.25 11.5787L12.75 12.4375C12.8263 12.4816 12.913 12.5047 13.0011 12.5045C13.0893 12.5043 13.1758 12.4808 13.252 12.4364C13.3281 12.392 13.3911 12.3282 13.4347 12.2516C13.4783 12.1749 13.5008 12.0881 13.5 12V8.09188C13.8161 7.7892 14.0676 7.42567 14.2394 7.0232C14.4113 6.62072 14.4999 6.18762 14.4999 5.75C14.4999 5.31238 14.4113 4.87928 14.2394 4.47681C14.0676 4.07433 13.8161 3.7108 13.5 3.40812ZM7 7H3.5C3.36739 7 3.24021 6.94732 3.14645 6.85355C3.05268 6.75979 3 6.63261 3 6.5C3 6.36739 3.05268 6.24021 3.14645 6.14645C3.24021 6.05268 3.36739 6 3.5 6H7C7.13261 6 7.25979 6.05268 7.35355 6.14645C7.44732 6.24021 7.5 6.36739 7.5 6.5C7.5 6.63261 7.44732 6.75979 7.35355 6.85355C7.25979 6.94732 7.13261 7 7 7ZM7 5H3.5C3.36739 5 3.24021 4.94732 3.14645 4.85355C3.05268 4.75979 3 4.63261 3 4.5C3 4.36739 3.05268 4.24021 3.14645 4.14645C3.24021 4.05268 3.36739 4 3.5 4H7C7.13261 4 7.25979 4.05268 7.35355 4.14645C7.44732 4.24021 7.5 4.36739 7.5 4.5C7.5 4.63261 7.44732 4.75979 7.35355 4.85355C7.25979 4.94732 7.13261 5 7 5ZM12.5 11.1381L11.5 10.5656C11.4244 10.5224 11.3389 10.4997 11.2519 10.4997C11.1648 10.4997 11.0793 10.5224 11.0037 10.5656L10.0037 11.1381V8.75C10.3997 8.91544 10.8246 9.00063 11.2537 9.00063C11.6829 9.00063 12.1078 8.91544 12.5037 8.75L12.5 11.1381ZM11.25 8C10.805 8 10.37 7.86804 9.99997 7.62081C9.62996 7.37357 9.34157 7.02217 9.17127 6.61104C9.00097 6.1999 8.95642 5.7475 9.04323 5.31105C9.13005 4.87459 9.34434 4.47368 9.65901 4.15901C9.97368 3.84434 10.3746 3.63005 10.811 3.54323C11.2475 3.45642 11.6999 3.50097 12.111 3.67127C12.5222 3.84157 12.8736 4.12996 13.1208 4.49997C13.368 4.86998 13.5 5.30499 13.5 5.75C13.5 6.04547 13.4418 6.33805 13.3287 6.61104C13.2157 6.88402 13.0499 7.13206 12.841 7.34099C12.6321 7.54992 12.384 7.71566 12.111 7.82873C11.8381 7.9418 11.5455 8 11.25 8Z" fill="#05577F"/>
</svg>
