<svg width="12" height="12" viewBox="0 0 12 12" fill="none" xmlns="http://www.w3.org/2000/svg">
<path d="M6.16289 0.107317C6.11927 0.0630414 6.06124 0.0383301 6.00088 0.0383301C5.94052 0.0383301 5.88248 0.0630414 5.83887 0.107317L0.445312 5.57478C0.422407 5.59803 0.404184 5.62597 0.391746 5.65691C0.379308 5.68784 0.372913 5.72114 0.372949 5.75478L0.37207 10.8862C0.37207 11.15 0.470842 11.403 0.646658 11.5896C0.822473 11.7762 1.06093 11.881 1.30957 11.881H4.125C4.24932 11.881 4.36855 11.8286 4.45645 11.7353C4.54436 11.642 4.59375 11.5155 4.59375 11.3836V7.1556C4.59375 7.08964 4.61844 7.02638 4.6624 6.97974C4.70635 6.9331 4.76596 6.9069 4.82812 6.9069H7.17187C7.23403 6.9069 7.29365 6.9331 7.3376 6.97974C7.38155 7.02638 7.40625 7.08964 7.40625 7.1556V11.3836C7.40625 11.5155 7.45563 11.642 7.54354 11.7353C7.63145 11.8286 7.75068 11.881 7.875 11.881H10.6893C10.9379 11.881 11.1764 11.7762 11.3522 11.5896C11.528 11.403 11.6268 11.15 11.6268 10.8862V5.75478C11.6268 5.72114 11.6204 5.68784 11.608 5.65691C11.5955 5.62597 11.5773 5.59803 11.5544 5.57478L6.16289 0.107317Z" fill="#05577F"/>
</svg>
