<svg width="16" height="17" viewBox="0 0 16 17" fill="none" xmlns="http://www.w3.org/2000/svg">
<g clip-path="url(#clip0_732_6246)">
<path d="M3.54697 16.2895H2.60947C2.42299 16.2895 2.24414 16.2109 2.11228 16.0709C1.98042 15.931 1.90634 15.7412 1.90634 15.5434V11.0667C1.90634 10.8688 1.98042 10.679 2.11228 10.5391C2.24414 10.3992 2.42299 10.3206 2.60947 10.3206H3.54697C3.73345 10.3206 3.91229 10.3992 4.04415 10.5391C4.17601 10.679 4.25009 10.8688 4.25009 11.0667V15.5434C4.25009 15.7412 4.17601 15.931 4.04415 16.0709C3.91229 16.2109 3.73345 16.2895 3.54697 16.2895Z" fill="#05577F"/>
<path d="M10.1095 16.2886H9.17197C8.98549 16.2886 8.80664 16.21 8.67478 16.07C8.54292 15.9301 8.46884 15.7403 8.46884 15.5425V8.08132C8.46884 7.88344 8.54292 7.69366 8.67478 7.55374C8.80664 7.41381 8.98549 7.33521 9.17197 7.33521H10.1095C10.2959 7.33521 10.4748 7.41381 10.6066 7.55374C10.7385 7.69366 10.8126 7.88344 10.8126 8.08132V15.5425C10.8126 15.7403 10.7385 15.9301 10.6066 16.07C10.4748 16.21 10.2959 16.2886 10.1095 16.2886Z" fill="#05577F"/>
<path d="M13.3907 16.289H12.4532C12.2667 16.289 12.0879 16.2104 11.956 16.0705C11.8242 15.9305 11.7501 15.7408 11.7501 15.5429V4.59987C11.7501 4.40199 11.8242 4.21221 11.956 4.07229C12.0879 3.93237 12.2667 3.85376 12.4532 3.85376H13.3907C13.5772 3.85376 13.756 3.93237 13.8879 4.07229C14.0198 4.21221 14.0938 4.40199 14.0938 4.59987V15.5429C14.0938 15.7408 14.0198 15.9305 13.8879 16.0705C13.756 16.2104 13.5772 16.289 13.3907 16.289Z" fill="#05577F"/>
<path d="M6.82822 16.2887H5.89072C5.70424 16.2887 5.52539 16.2101 5.39353 16.0702C5.26167 15.9303 5.18759 15.7405 5.18759 15.5426V2.11257C5.18759 1.91469 5.26167 1.72491 5.39353 1.58499C5.52539 1.44506 5.70424 1.36646 5.89072 1.36646H6.82822C7.0147 1.36646 7.19354 1.44506 7.3254 1.58499C7.45726 1.72491 7.53134 1.91469 7.53134 2.11257V15.5426C7.53134 15.7405 7.45726 15.9303 7.3254 16.0702C7.19354 16.2101 7.0147 16.2887 6.82822 16.2887Z" fill="#05577F"/>
</g>
<defs>
<clipPath id="clip0_732_6246">
<rect width="15" height="15.9171" fill="white" transform="translate(0.500092 0.869385)"/>
</clipPath>
</defs>
</svg>
